G75*
G70*
%OFA0B0*%
%FSLAX24Y24*%
%IPPOS*%
%LPD*%
%AMOC8*
5,1,8,0,0,1.08239X$1,22.5*
%
%ADD10C,0.0039*%
D10*
X006859Y006070D02*
X006859Y023393D01*
X006858Y022921D02*
X006858Y006607D01*
X006858Y006070D02*
X006860Y005986D01*
X006866Y005902D01*
X006876Y005818D01*
X006890Y005735D01*
X006908Y005652D01*
X006930Y005571D01*
X006955Y005490D01*
X006985Y005411D01*
X007018Y005334D01*
X007055Y005258D01*
X007095Y005184D01*
X007139Y005112D01*
X007187Y005042D01*
X007237Y004975D01*
X007291Y004910D01*
X007348Y004847D01*
X007407Y004788D01*
X007470Y004731D01*
X007535Y004677D01*
X007602Y004627D01*
X007672Y004579D01*
X007744Y004535D01*
X007818Y004495D01*
X007894Y004458D01*
X007971Y004425D01*
X008050Y004395D01*
X008131Y004370D01*
X008212Y004348D01*
X008295Y004330D01*
X008378Y004316D01*
X008462Y004306D01*
X008546Y004300D01*
X008630Y004298D01*
X008630Y004299D02*
X025953Y004299D01*
X026024Y004300D02*
X008670Y004300D01*
X025953Y004298D02*
X026037Y004300D01*
X026121Y004306D01*
X026205Y004316D01*
X026288Y004330D01*
X026371Y004348D01*
X026452Y004370D01*
X026533Y004395D01*
X026612Y004425D01*
X026689Y004458D01*
X026765Y004495D01*
X026839Y004535D01*
X026911Y004579D01*
X026981Y004627D01*
X027048Y004677D01*
X027113Y004731D01*
X027176Y004788D01*
X027235Y004847D01*
X027292Y004910D01*
X027346Y004975D01*
X027396Y005042D01*
X027444Y005112D01*
X027488Y005184D01*
X027528Y005258D01*
X027565Y005334D01*
X027598Y005411D01*
X027628Y005490D01*
X027653Y005571D01*
X027675Y005652D01*
X027693Y005735D01*
X027707Y005818D01*
X027717Y005902D01*
X027723Y005986D01*
X027725Y006070D01*
X027725Y023393D01*
X027726Y023496D02*
X027724Y006601D01*
X027725Y023393D02*
X027723Y023477D01*
X027717Y023561D01*
X027707Y023645D01*
X027693Y023728D01*
X027675Y023811D01*
X027653Y023892D01*
X027628Y023973D01*
X027598Y024052D01*
X027565Y024129D01*
X027528Y024205D01*
X027488Y024279D01*
X027444Y024351D01*
X027396Y024421D01*
X027346Y024488D01*
X027292Y024553D01*
X027235Y024616D01*
X027176Y024675D01*
X027113Y024732D01*
X027048Y024786D01*
X026981Y024836D01*
X026911Y024884D01*
X026839Y024928D01*
X026765Y024968D01*
X026689Y025005D01*
X026612Y025038D01*
X026533Y025068D01*
X026452Y025093D01*
X026371Y025115D01*
X026288Y025133D01*
X026205Y025147D01*
X026121Y025157D01*
X026037Y025163D01*
X025953Y025165D01*
X008630Y025165D01*
X008670Y025165D02*
X026019Y025165D01*
X008630Y025165D02*
X008546Y025163D01*
X008462Y025157D01*
X008378Y025147D01*
X008295Y025133D01*
X008212Y025115D01*
X008131Y025093D01*
X008050Y025068D01*
X007971Y025038D01*
X007894Y025005D01*
X007818Y024968D01*
X007744Y024928D01*
X007672Y024884D01*
X007602Y024836D01*
X007535Y024786D01*
X007470Y024732D01*
X007407Y024675D01*
X007348Y024616D01*
X007291Y024553D01*
X007237Y024488D01*
X007187Y024421D01*
X007139Y024351D01*
X007095Y024279D01*
X007055Y024205D01*
X007018Y024129D01*
X006985Y024052D01*
X006955Y023973D01*
X006930Y023892D01*
X006908Y023811D01*
X006890Y023728D01*
X006876Y023645D01*
X006866Y023561D01*
X006860Y023477D01*
X006858Y023393D01*
M02*
